<?xml version="1.0" encoding="UTF-8"?>
<!DOCTYPE svg PUBLIC "-//W3C//DTD SVG 1.1//EN" "http://www.w3.org/Graphics/SVG/1.1/DTD/svg11.dtd">
<svg xmlns="http://www.w3.org/2000/svg" xmlns:xlink="http://www.w3.org/1999/xlink" version="1.1" viewBox="-0.5 -0.5 1138 375"><defs><linearGradient x1="0%" y1="0%" x2="100%" y2="0%" id="mx-gradient-fff2cc-1-ffd966-1-e-0"><stop offset="0%" style="stop-color: rgb(255, 242, 204); stop-opacity: 1;"/><stop offset="100%" style="stop-color: rgb(255, 217, 102); stop-opacity: 1;"/></linearGradient><style type="text/css">@import url(https://fonts.googleapis.com/css?family=Lato);&#xa;</style></defs><g><path d="M 481.65 34.48 L 481.65 34.48 L 673.46 38.2 L 673.46 328.36 L 529.6 354.4 L 441.69 328.36 L 337.79 253.96 L 337.79 108.88 Z" fill="url(#mx-gradient-fff2cc-1-ffd966-1-e-0)" stroke="none" pointer-events="all"/><path d="M 674 183 L 674 39" fill="none" stroke="#000000" stroke-width="3" stroke-miterlimit="10" pointer-events="stroke"/><path d="M 674 327 L 674 183" fill="none" stroke="#000000" stroke-width="3" stroke-miterlimit="10" pointer-events="stroke"/><path d="M 481 35.4 L 447.4 171" fill="none" stroke="#000000" stroke-width="3" stroke-miterlimit="10" pointer-events="stroke"/><path d="M 338.2 111 L 338.2 255" fill="none" stroke="#000000" stroke-width="3" stroke-miterlimit="10" pointer-events="stroke"/><path d="M 676.6 40.2 L 479.8 34.2" fill="none" stroke="#000000" stroke-width="3" stroke-miterlimit="10" pointer-events="stroke"/><path d="M 578.2 159 L 481 36.6" fill="none" stroke="#000000" stroke-width="3" stroke-miterlimit="10" pointer-events="stroke"/><path d="M 340.6 107.4 L 478.6 36.6" fill="none" stroke="#000000" stroke-width="3" stroke-miterlimit="10" pointer-events="stroke"/><path d="M 339.4 255 L 439 327" fill="none" stroke="#000000" stroke-width="3" stroke-miterlimit="10" pointer-events="stroke"/><path d="M 340.6 109.8 L 448.6 171" fill="none" stroke="#000000" stroke-width="3" stroke-miterlimit="10" pointer-events="stroke"/><path d="M 339.4 256.2 L 448.6 172.2" fill="none" stroke="#000000" stroke-width="3" stroke-miterlimit="10" pointer-events="stroke"/><path d="M 578.2 157.8 L 675.4 40.2" fill="none" stroke="#000000" stroke-width="3" stroke-miterlimit="10" pointer-events="stroke"/><path d="M 531.4 353.4 L 675.4 328.2" fill="none" stroke="#000000" stroke-width="3" stroke-miterlimit="10" pointer-events="stroke"/><path d="M 530.2 353.4 L 437.8 328.2" fill="none" stroke="#000000" stroke-width="3" stroke-miterlimit="10" pointer-events="stroke"/><path d="M 674.2 323.4 L 578.2 156.6" fill="none" stroke="#000000" stroke-width="3" stroke-miterlimit="10" pointer-events="stroke"/><path d="M 578.2 160.2 L 674.2 183" fill="none" stroke="#000000" stroke-width="3" stroke-miterlimit="10" pointer-events="stroke"/><path d="M 578.2 160.2 L 448.6 172.2" fill="none" stroke="#000000" stroke-width="3" stroke-miterlimit="10" pointer-events="stroke"/><path d="M 436.6 325.8 L 449.8 172.2" fill="none" stroke="#000000" stroke-width="3" stroke-miterlimit="10" pointer-events="stroke"/><path d="M 531.4 353.4 L 448.6 171" fill="none" stroke="#000000" stroke-width="3" stroke-miterlimit="10" pointer-events="stroke"/><path d="M 578.2 161.4 L 531.4 352.2" fill="none" stroke="#000000" stroke-width="3" stroke-miterlimit="10" pointer-events="stroke"/><path d="M 998.2 256.2 L 1073.8 184.2" fill="none" stroke="#000000" stroke-width="3" stroke-miterlimit="10" pointer-events="stroke"/><path d="M 998.2 108.6 L 1073.8 184.2" fill="none" stroke="#000000" stroke-width="3" stroke-miterlimit="10" pointer-events="stroke"/><rect x="1" y="79.8" width="60" height="240" fill="none" stroke="none" pointer-events="all"/><path d="M 25 283.8 L 37 283.8 M 15.4 275.4 L 46.6 275.4 M 8.2 267 L 53.8 267 M 31 103.8 L 31 267" fill="none" stroke="#000000" stroke-width="3" stroke-miterlimit="10" pointer-events="all"/><ellipse cx="31" cy="109.8" rx="30.000000000000004" ry="30.000000000000004" fill="#ffffff" stroke="#000000" stroke-width="3" pointer-events="all"/><ellipse cx="31" cy="109.8" rx="7.200000000000001" ry="7.200000000000001" fill="none" stroke="#000000" stroke-width="3" pointer-events="all"/><path d="M 670.6 328.2 L 855.4 256.2" fill="none" stroke="#000000" stroke-width="3" stroke-miterlimit="10" pointer-events="stroke"/><path d="M 670.6 40.2 L 674 41.52 L 674.23 41.61 L 855.4 112.2" fill="none" stroke="#000000" stroke-width="3" stroke-miterlimit="10" pointer-events="stroke"/><path d="M 670.6 184.2 L 674 185.52 L 855.4 256.2" fill="none" stroke="#000000" stroke-width="3" stroke-miterlimit="10" pointer-events="stroke"/><path d="M 670.6 184.2 L 855.4 112.2" fill="none" stroke="#000000" stroke-width="3" stroke-miterlimit="10" pointer-events="stroke"/><path d="M 850.6 255.6 L 994.6 255.6" fill="none" stroke="#000000" stroke-width="3" stroke-miterlimit="10" pointer-events="stroke"/><path d="M 850.6 112.2 L 851.95 113.55 L 994 255.6 L 994.6 256.2" fill="none" stroke="#000000" stroke-width="3" stroke-miterlimit="10" pointer-events="stroke"/><path d="M 850.6 111.6 L 994.6 111.6" fill="none" stroke="#000000" stroke-width="3" stroke-miterlimit="10" pointer-events="stroke"/><path d="M 850.6 256.2 L 851.2 255.6 L 851.95 254.85 L 919.06 187.74 M 926.14 180.66 M 926.14 180.66 L 994.6 112.2" fill="none" stroke="#000000" stroke-width="3" stroke-miterlimit="10" pointer-events="stroke"/><path d="M 670.6 40.2 L 673.04 43.05 L 674 44.17 L 759.75 144.4 M 766.25 152 M 766.25 152 L 853.19 253.61 L 854.89 255.6 L 855.4 256.2" fill="none" stroke="#000000" stroke-width="3" stroke-miterlimit="10" pointer-events="stroke"/><path d="M 670.6 328.2 L 670.75 328.03 M 677.25 320.43 M 677.25 320.43 L 759.75 224 M 766.25 216.4 M 766.25 216.4 L 790.55 188 M 797.05 180.4 M 797.05 180.4 L 853.19 114.79 L 855.4 112.2" fill="none" stroke="#000000" stroke-width="3" stroke-miterlimit="10" pointer-events="stroke"/><ellipse cx="674.4" cy="39" rx="11.999999999999998" ry="11.999999999999998" fill="#ffffff" stroke="#000000" stroke-width="3" pointer-events="all"/><ellipse cx="674.4" cy="327" rx="11.999999999999998" ry="11.999999999999998" fill="#ffffff" stroke="#000000" stroke-width="3" pointer-events="all"/><ellipse cx="674.4" cy="183" rx="11.999999999999998" ry="11.999999999999998" fill="#ffffff" stroke="#000000" stroke-width="3" pointer-events="all"/><ellipse cx="855.4" cy="255" rx="11.999999999999998" ry="11.999999999999998" fill="#ffffff" stroke="#000000" stroke-width="3" pointer-events="all"/><ellipse cx="855.4" cy="111" rx="11.999999999999998" ry="11.999999999999998" fill="#ffffff" stroke="#000000" stroke-width="3" pointer-events="all"/><ellipse cx="999.4" cy="255" rx="11.999999999999998" ry="11.999999999999998" fill="#ffffff" stroke="#000000" stroke-width="3" pointer-events="all"/><ellipse cx="999.4" cy="111" rx="11.999999999999998" ry="11.999999999999998" fill="#ffffff" stroke="#000000" stroke-width="3" pointer-events="all"/><rect x="207.4" y="97.8" width="120" height="24" fill="none" stroke="none" pointer-events="all"/><rect x="229" y="97.8" width="76.8" height="24" fill="#ffffff" stroke="#000000" stroke-width="3" pointer-events="all"/><path d="M 207.4 109.8 L 229 109.8 M 305.8 109.8 L 327.4 109.8" fill="none" stroke="#000000" stroke-width="3" stroke-miterlimit="10" pointer-events="all"/><rect x="167.2" y="160.2" width="96" height="46.8" fill="none" stroke="none" transform="rotate(90,215.2,183.6)" pointer-events="all"/><path d="M 186.4 183.6 L 210.4 183.6 M 220 160.2 L 220 207 M 210.4 160.2 L 210.4 207 M 220 183.6 L 244 183.6" fill="none" stroke="#000000" stroke-width="3" stroke-miterlimit="10" transform="rotate(90,215.2,183.6)" pointer-events="all"/><ellipse cx="339.4" cy="109.8" rx="11.999999999999998" ry="11.999999999999998" fill="#ffffff" stroke="#000000" stroke-width="3" pointer-events="all"/><path d="M 219.4 109.8 L 207.4 109.8" fill="none" stroke="#000000" stroke-width="3" stroke-miterlimit="10" pointer-events="stroke"/><rect x="99.4" y="100.2" width="120" height="9.6" fill="none" stroke="none" pointer-events="all"/><path d="M 99.4 109.8 L 121 109.8 C 121 104.5 125.3 100.2 130.6 100.2 C 135.9 100.2 140.2 104.5 140.2 109.8 C 140.2 104.5 144.5 100.2 149.8 100.2 C 155.1 100.2 159.4 104.5 159.4 109.8 C 159.4 104.5 163.7 100.2 169 100.2 C 174.3 100.2 178.6 104.5 178.6 109.8 C 178.6 104.5 182.9 100.2 188.2 100.2 C 193.5 100.2 197.8 104.5 197.8 109.8 L 219.4 109.8" fill="none" stroke="#000000" stroke-width="3" stroke-linejoin="round" stroke-miterlimit="10" pointer-events="all"/><path d="M 85 109.8 L 39.4 109.8" fill="none" stroke="#000000" stroke-width="3" stroke-miterlimit="10" pointer-events="stroke"/><path d="M 215.2 177 L 215.2 113" fill="none" stroke="#000000" stroke-width="3" stroke-miterlimit="10" pointer-events="stroke"/><ellipse cx="215.2" cy="110" rx="3" ry="3" fill="#000000" stroke="#000000" stroke-width="3" pointer-events="all"/><path d="M 215.2 207 L 215.2 252" fill="none" stroke="#000000" stroke-width="3" stroke-miterlimit="10" pointer-events="stroke"/><ellipse cx="215.2" cy="255" rx="3" ry="3" fill="#000000" stroke="#000000" stroke-width="3" pointer-events="all"/><path d="M 339.4 255 L 34 255" fill="none" stroke="#000000" stroke-width="3" stroke-miterlimit="10" pointer-events="stroke"/><ellipse cx="31" cy="255" rx="3" ry="3" fill="#000000" stroke="#000000" stroke-width="3" pointer-events="all"/><ellipse cx="339.4" cy="255" rx="11.999999999999998" ry="11.999999999999998" fill="#ffffff" stroke="#000000" stroke-width="3" pointer-events="all"/><ellipse cx="1072.6" cy="184.2" rx="11.999999999999998" ry="11.999999999999998" fill="#ffffff" stroke="#000000" stroke-width="3" pointer-events="all"/><ellipse cx="447.4" cy="171" rx="11.999999999999998" ry="11.999999999999998" fill="#ffffff" stroke="#000000" stroke-width="3" pointer-events="all"/><ellipse cx="437.8" cy="327" rx="11.999999999999998" ry="11.999999999999998" fill="#ffffff" stroke="#000000" stroke-width="3" pointer-events="all"/><ellipse cx="531.4" cy="351" rx="11.999999999999998" ry="11.999999999999998" fill="#ffffff" stroke="#000000" stroke-width="3" pointer-events="all"/><ellipse cx="579.4" cy="159" rx="11.999999999999998" ry="11.999999999999998" fill="#ffffff" stroke="#000000" stroke-width="3" pointer-events="all"/><ellipse cx="482.2" cy="34.8" rx="11.999999999999998" ry="11.999999999999998" fill="#ffffff" stroke="#000000" stroke-width="3" pointer-events="all"/><path d="M 1084.6 183.6 L 1116.5 184.06" fill="none" stroke="#000000" stroke-width="3" stroke-miterlimit="10" pointer-events="stroke"/><path d="M 1123.25 184.15 L 1114.18 188.52 L 1116.5 184.06 L 1114.31 179.52 Z" fill="#000000" stroke="#000000" stroke-width="3" stroke-miterlimit="10" pointer-events="all"/><path d="M 70.6 109.8 L 96.5 109.8" fill="none" stroke="#000000" stroke-width="3" stroke-miterlimit="10" pointer-events="stroke"/><path d="M 103.25 109.8 L 94.25 114.3 L 96.5 109.8 L 94.25 105.3 Z" fill="#000000" stroke="#000000" stroke-width="3" stroke-miterlimit="10" pointer-events="all"/></g></svg>
