<?xml version="1.0" encoding="UTF-8"?>
<!DOCTYPE svg PUBLIC "-//W3C//DTD SVG 1.1//EN" "http://www.w3.org/Graphics/SVG/1.1/DTD/svg11.dtd">
<svg xmlns="http://www.w3.org/2000/svg" xmlns:xlink="http://www.w3.org/1999/xlink" version="1.1" width="1131px" height="363px" viewBox="-0.5 -0.5 1131 363" style="background-color: rgb(255, 255, 255);"><defs><linearGradient x1="0%" y1="0%" x2="100%" y2="0%" id="mx-gradient-fff2cc-1-ffd966-1-e-0"><stop offset="0%" style="stop-color: rgb(255, 242, 204); stop-opacity: 1;"/><stop offset="100%" style="stop-color: rgb(255, 217, 102); stop-opacity: 1;"/></linearGradient><style type="text/css">@import url(https://fonts.googleapis.com/css?family=Lato);&#xa;</style></defs><g><path d="M 517.08 18.67 L 520.22 11.72 L 630.07 18.67 L 630.07 331.22 L 482.56 345.11 L 476.28 341.64 L 366.44 251.34 L 363.3 91.6 Z" fill="url(#mx-gradient-fff2cc-1-ffd966-1-e-0)" stroke="none" pointer-events="none"/><path d="M 373 103 L 481 345" fill="none" stroke="#000000" stroke-width="5" stroke-miterlimit="10" pointer-events="none"/><path d="M 520.76 18.19 L 629.69 176.73" fill="none" stroke="#000000" stroke-width="5" stroke-miterlimit="10" pointer-events="none"/><path d="M 630.77 174.58 L 630.77 19.27" fill="none" stroke="#000000" stroke-width="5" stroke-miterlimit="10" pointer-events="none"/><path d="M 630.77 329.88 L 630.77 174.58" fill="none" stroke="#000000" stroke-width="5" stroke-miterlimit="10" pointer-events="none"/><path d="M 630.77 176.73 L 370.85 94.77" fill="none" stroke="#000000" stroke-width="5" stroke-miterlimit="10" pointer-events="none"/><path d="M 365.67 96.92 L 365.67 252.23" fill="none" stroke="#000000" stroke-width="5" stroke-miterlimit="10" pointer-events="none"/><path d="M 630.77 20.35 L 518.39 14.09" fill="none" stroke="#000000" stroke-width="5" stroke-miterlimit="10" pointer-events="none"/><path d="M 368.26 93.04 L 517.09 16.68" fill="none" stroke="#000000" stroke-width="5" stroke-miterlimit="10" pointer-events="none"/><path d="M 366.97 252.23 L 478.7 342.82" fill="none" stroke="#000000" stroke-width="5" stroke-miterlimit="10" pointer-events="none"/><path d="M 484.09 344.98 L 630.77 330.96" fill="none" stroke="#000000" stroke-width="5" stroke-miterlimit="10" pointer-events="none"/><path d="M 483.01 342.82 L 630.77 174.58" fill="none" stroke="#000000" stroke-width="5" stroke-miterlimit="10" pointer-events="none"/><path d="M 980.42 253.52 L 1061.95 175.87" fill="none" stroke="#000000" stroke-width="5" stroke-miterlimit="10" pointer-events="none"/><path d="M 980.42 94.34 L 1061.95 175.87" fill="none" stroke="#000000" stroke-width="5" stroke-miterlimit="10" pointer-events="none"/><path d="M 27.88 283.29 L 40.83 283.29 M 17.53 274.23 L 51.18 274.23 M 9.77 265.17 L 58.95 265.17 M 34.36 89.16 L 34.36 265.17" fill="none" stroke="#000000" stroke-width="5" stroke-miterlimit="10" pointer-events="none"/><ellipse cx="34.36" cy="95.63" rx="32.35515643105446" ry="32.35505240890378" fill="#ffffff" stroke="#000000" stroke-width="5" pointer-events="none"/><ellipse cx="34.36" cy="95.63" rx="7.76523754345307" ry="7.765212578136907" fill="none" stroke="#000000" stroke-width="5" pointer-events="none"/><path d="M 627.1 331.17 L 826.41 253.52" fill="none" stroke="#000000" stroke-width="5" stroke-miterlimit="10" pointer-events="none"/><path d="M 627.1 20.57 L 630.77 21.99 L 826.41 98.22" fill="none" stroke="#000000" stroke-width="5" stroke-miterlimit="10" pointer-events="none"/><path d="M 627.1 175.87 L 628.99 176.6 L 630.77 177.3 L 826.41 253.52" fill="none" stroke="#000000" stroke-width="5" stroke-miterlimit="10" pointer-events="none"/><path d="M 627.1 175.87 L 628.68 175.26 L 826.41 98.22" fill="none" stroke="#000000" stroke-width="5" stroke-miterlimit="10" pointer-events="none"/><path d="M 821.23 252.88 L 976.54 252.88" fill="none" stroke="#000000" stroke-width="5" stroke-miterlimit="10" pointer-events="none"/><path d="M 821.23 98.22 L 822.68 99.67 L 975.89 252.88 L 976.54 253.52" fill="none" stroke="#000000" stroke-width="5" stroke-miterlimit="10" pointer-events="none"/><path d="M 821.23 97.57 L 976.54 97.57" fill="none" stroke="#000000" stroke-width="5" stroke-miterlimit="10" pointer-events="none"/><path d="M 821.23 253.52 L 821.88 252.88 L 822.68 252.07 L 893.94 180.82 M 903.83 170.92 M 903.83 170.92 L 976.54 98.22" fill="none" stroke="#000000" stroke-width="5" stroke-miterlimit="10" pointer-events="none"/><path d="M 627.1 20.57 L 630.77 24.85 L 722.2 131.73 M 731.31 142.36 M 731.31 142.36 L 824.02 250.73 L 825.86 252.88 L 826.41 253.52" fill="none" stroke="#000000" stroke-width="5" stroke-miterlimit="10" pointer-events="none"/><path d="M 627.1 331.17 L 630.77 326.89 L 722.2 220.02 M 731.31 209.38 M 731.31 209.38 L 755.42 181.19 M 764.52 170.55 M 764.52 170.55 L 824.02 101.01 L 826.41 98.22" fill="none" stroke="#000000" stroke-width="5" stroke-miterlimit="10" pointer-events="none"/><ellipse cx="631.2" cy="19.27" rx="12.942020963561514" ry="12.942020963561514" fill="#ffffff" stroke="#000000" stroke-width="5" pointer-events="none"/><ellipse cx="631.2" cy="329.88" rx="12.942020963561514" ry="12.942020963561514" fill="#ffffff" stroke="#000000" stroke-width="5" pointer-events="none"/><ellipse cx="631.2" cy="174.58" rx="12.942020963561514" ry="12.942020963561514" fill="#ffffff" stroke="#000000" stroke-width="5" pointer-events="none"/><ellipse cx="826.41" cy="252.23" rx="12.942020963561514" ry="12.942020963561514" fill="#ffffff" stroke="#000000" stroke-width="5" pointer-events="none"/><ellipse cx="826.41" cy="96.92" rx="12.942020963561514" ry="12.942020963561514" fill="#ffffff" stroke="#000000" stroke-width="5" pointer-events="none"/><ellipse cx="981.71" cy="252.23" rx="12.942020963561514" ry="12.942020963561514" fill="#ffffff" stroke="#000000" stroke-width="5" pointer-events="none"/><ellipse cx="981.71" cy="96.92" rx="12.942020963561514" ry="12.942020963561514" fill="#ffffff" stroke="#000000" stroke-width="5" pointer-events="none"/><rect x="247.9" y="82.69" width="82.83" height="25.88" fill="#ffffff" stroke="#000000" stroke-width="5" pointer-events="none"/><path d="M 224.6 95.63 L 247.9 95.63 M 330.73 95.63 L 354.02 95.63" fill="none" stroke="#000000" stroke-width="5" stroke-miterlimit="10" pointer-events="none"/><path d="M 201.95 175.22 L 227.84 175.22 M 238.19 149.99 L 238.19 200.46 M 227.84 149.99 L 227.84 200.46 M 238.19 175.22 L 264.08 175.22" fill="none" stroke="#000000" stroke-width="5" stroke-miterlimit="10" transform="rotate(90,233.02,175.22)" pointer-events="none"/><ellipse cx="366.97" cy="95.63" rx="12.942020963561514" ry="12.942020963561514" fill="#ffffff" stroke="#000000" stroke-width="5" pointer-events="none"/><path d="M 237.55 95.63 L 224.6 95.63" fill="none" stroke="#000000" stroke-width="5" stroke-miterlimit="10" pointer-events="none"/><path d="M 108.12 95.63 L 131.42 95.63 C 131.42 89.91 136.06 85.28 141.77 85.28 C 147.49 85.28 152.13 89.91 152.13 95.63 C 152.13 89.91 156.76 85.28 162.48 85.28 C 168.2 85.28 172.84 89.91 172.84 95.63 C 172.84 89.91 177.47 85.28 183.19 85.28 C 188.91 85.28 193.54 89.91 193.54 95.63 C 193.54 89.91 198.18 85.28 203.9 85.28 C 209.61 85.28 214.25 89.91 214.25 95.63 L 237.55 95.63" fill="none" stroke="#000000" stroke-width="5" stroke-linejoin="round" stroke-miterlimit="10" pointer-events="none"/><path d="M 92.59 95.63 L 43.41 95.63" fill="none" stroke="#000000" stroke-width="5" stroke-miterlimit="10" pointer-events="none"/><path d="M 233.02 168.1 L 233.02 98.85" fill="none" stroke="#000000" stroke-width="5" stroke-miterlimit="10" pointer-events="none"/><ellipse cx="233.02" cy="95.85" rx="3" ry="3" fill="#000000" stroke="#000000" stroke-width="5" pointer-events="none"/><path d="M 233.02 200.46 L 233.02 249.23" fill="none" stroke="#000000" stroke-width="5" stroke-miterlimit="10" pointer-events="none"/><ellipse cx="233.02" cy="252.23" rx="3" ry="3" fill="#000000" stroke="#000000" stroke-width="5" pointer-events="none"/><path d="M 366.97 252.23 L 37.36 252.23" fill="none" stroke="#000000" stroke-width="5" stroke-miterlimit="10" pointer-events="none"/><ellipse cx="34.36" cy="252.23" rx="3" ry="3" fill="#000000" stroke="#000000" stroke-width="5" pointer-events="none"/><ellipse cx="366.97" cy="252.23" rx="12.942020963561514" ry="12.942020963561514" fill="#ffffff" stroke="#000000" stroke-width="5" pointer-events="none"/><ellipse cx="1060.66" cy="175.87" rx="12.942020963561514" ry="12.942020963561514" fill="#ffffff" stroke="#000000" stroke-width="5" pointer-events="none"/><ellipse cx="480.86" cy="344.98" rx="12.942020963561514" ry="12.942020963561514" fill="#ffffff" stroke="#000000" stroke-width="5" transform="rotate(5,480.86,344.98)" pointer-events="none"/><ellipse cx="520.98" cy="14.74" rx="12.942020963561514" ry="12.942020963561514" fill="#ffffff" stroke="#000000" stroke-width="5" pointer-events="none"/><path d="M 1073.6 175.22 L 1105.06 175.67" fill="none" stroke="#000000" stroke-width="5" stroke-miterlimit="10" pointer-events="none"/><path d="M 1113.31 175.79 L 1102.23 181.13 L 1105.06 175.67 L 1102.39 170.13 Z" fill="#000000" stroke="#000000" stroke-width="5" stroke-miterlimit="10" pointer-events="none"/><path d="M 77.06 95.63 L 102.05 95.63" fill="none" stroke="#000000" stroke-width="5" stroke-miterlimit="10" pointer-events="none"/><path d="M 110.3 95.63 L 99.3 101.13 L 102.05 95.63 L 99.3 90.13 Z" fill="#000000" stroke="#000000" stroke-width="5" stroke-miterlimit="10" pointer-events="none"/></g></svg>